{"asset":{"version":"2.0","generator":"THREE.GLTFExporter r175"},"scenes":[{"name":"AuxScene","nodes":[12]}],"scene":0,"nodes":[{"mesh":0},{"mesh":1},{"mesh":2},{"mesh":3},{"mesh":4},{"mesh":5},{"mesh":6},{"mesh":7},{"matrix":[0.5082930410933102,0,-0.5082930410933102,0,0,-0.7188349123740242,0,0,0.5082930410933102,0,0.5082930410933102,0,0,0,0,1],"children":[0,1,2,3,4,5,6,7]},{"children":[8]},{"matrix":[1,0,0,0,0,1,0,0,0,0,1,0,-36.88002669847746,17.67225008564639,34.84685465529072,1],"children":[9]},{"children":[10]},{"children":[11]}],"bufferViews":[{"buffer":0,"byteOffset":0,"byteLength":42336,"target":34962,"byteStride":12},{"buffer":0,"byteOffset":42336,"byteLength":28224,"target":34962,"byteStride":8},{"buffer":0,"byteOffset":70560,"byteLength":42336,"target":34962,"byteStride":12},{"buffer":0,"byteOffset":112896,"byteLength":40608,"target":34962,"byteStride":12},{"buffer":0,"byteOffset":153504,"byteLength":27072,"target":34962,"byteStride":8},{"buffer":0,"byteOffset":180576,"byteLength":40608,"target":34962,"byteStride":12},{"buffer":0,"byteOffset":221184,"byteLength":41256,"target":34962,"byteStride":12},{"buffer":0,"byteOffset":262440,"byteLength":27504,"target":34962,"byteStride":8},{"buffer":0,"byteOffset":289944,"byteLength":41256,"target":34962,"byteStride":12},{"buffer":0,"byteOffset":331200,"byteLength":41256,"target":34962,"byteStride":12},{"buffer":0,"byteOffset":372456,"byteLength":27504,"target":34962,"byteStride":8},{"buffer":0,"byteOffset":399960,"byteLength":41256,"target":34962,"byteStride":12},{"buffer":0,"byteOffset":441216,"byteLength":1584,"target":34962,"byteStride":12},{"buffer":0,"byteOffset":442800,"byteLength":1056,"target":34962,"byteStride":8},{"buffer":0,"byteOffset":443856,"byteLength":1584,"target":34962,"byteStride":12},{"buffer":0,"byteOffset":445440,"byteLength":16272,"target":34962,"byteStride":12},{"buffer":0,"byteOffset":461712,"byteLength":10848,"target":34962,"byteStride":8},{"buffer":0,"byteOffset":472560,"byteLength":16272,"target":34962,"byteStride":12},{"buffer":0,"byteOffset":488832,"byteLength":68256,"target":34962,"byteStride":12},{"buffer":0,"byteOffset":557088,"byteLength":45504,"target":34962,"byteStride":8},{"buffer":0,"byteOffset":602592,"byteLength":68256,"target":34962,"byteStride":12},{"buffer":0,"byteOffset":670848,"byteLength":72576,"target":34962,"byteStride":12},{"buffer":0,"byteOffset":743424,"byteLength":48384,"target":34962,"byteStride":8},{"buffer":0,"byteOffset":791808,"byteLength":72576,"target":34962,"byteStride":12}],"buffers":[{"byteLength":864384,"uri":"data:application/octet-stream;base64,"}],"accessors":[{"bufferView":0,"componentType":5126,"count":3528,"max":[45.0369987487793,47.167999267578125,58.099998474121094],"min":[1,2,-0.6000000238418579],"type":"VEC3"},{"bufferView":1,"componentType":5126,"count":3528,"max":[45.0369987487793,47.167999267578125],"min":[1,-57.099998474121094],"type":"VEC2"},{"bufferView":2,"componentType":5126,"count":3528,"max":[0.9998065233230591,0.997647225856781,1],"min":[-0.9996677041053772,-0.9973644018173218,-1],"type":"VEC3"},{"bufferView":3,"componentType":5126,"count":3384,"max":[70.18465423583984,39.547000885009766,58.099998474121094],"min":[45.94279861450195,12.451000213623047,-0.6000000238418579],"type":"VEC3"},{"bufferView":4,"componentType":5126,"count":3384,"max":[70.18465423583984,39.547000885009766],"min":[12.451000213623047,-57.099998474121094],"type":"VEC2"},{"bufferView":5,"componentType":5126,"count":3384,"max":[0.9999999403953552,1,1],"min":[-0.9998596906661987,-1,-1],"type":"VEC3"},{"bufferView":6,"componentType":5126,"count":3438,"max":[136.72300720214844,39.55500030517578,58.099998474121094],"min":[115.12000274658203,12.451000213623047,-0.6000000238418579],"type":"VEC3"},{"bufferView":7,"componentType":5126,"count":3438,"max":[136.72300720214844,39.55500030517578],"min":[12.451000213623047,-57.099998474121094],"type":"VEC2"},{"bufferView":8,"componentType":5126,"count":3438,"max":[1,1,1],"min":[-0.9960203170776367,-1,-1],"type":"VEC3"},{"bufferView":9,"componentType":5126,"count":3438,"max":[89.51300048828125,39.55500030517578,58.099998474121094],"min":[67.91200256347656,12.451000213623047,-0.6000000238418579],"type":"VEC3"},{"bufferView":10,"componentType":5126,"count":3438,"max":[89.51300048828125,39.55500030517578],"min":[12.451000213623047,-57.099998474121094],"type":"VEC2"},{"bufferView":11,"componentType":5126,"count":3438,"max":[1,1,1],"min":[-0.9960277676582336,-1,-1],"type":"VEC3"},{"bufferView":12,"componentType":5126,"count":132,"max":[99.76899719238281,39.54999923706055,58.099998474121094],"min":[86.74700164794922,12.451000213623047,-0.6000000238418579],"type":"VEC3"},{"bufferView":13,"componentType":5126,"count":132,"max":[99.76899719238281,39.54999923706055],"min":[12.451000213623047,-57.099998474121094],"type":"VEC2"},{"bufferView":14,"componentType":5126,"count":132,"max":[0.9677245020866394,1,1],"min":[-0.9676896929740906,-1,-1],"type":"VEC3"},{"bufferView":15,"componentType":5126,"count":1356,"max":[119.19200134277344,39.55099868774414,58.099998474121094],"min":[97.40648651123047,12.451000213623047,-0.6000000238418579],"type":"VEC3"},{"bufferView":16,"componentType":5126,"count":1356,"max":[119.19200134277344,39.55099868774414],"min":[12.451000213623047,-57.099998474121094],"type":"VEC2"},{"bufferView":17,"componentType":5126,"count":1356,"max":[0.9985946416854858,1,1],"min":[-0.9997676014900208,-1,-1],"type":"VEC3"},{"bufferView":18,"componentType":5126,"count":5688,"max":[138.6230010986328,38.31100082397461,58.099998474121094],"min":[136.30599975585938,35.33700180053711,-0.6000000238418579],"type":"VEC3"},{"bufferView":19,"componentType":5126,"count":5688,"max":[138.6230010986328,38.31100082397461],"min":[35.33700180053711,-57.099998474121094],"type":"VEC2"},{"bufferView":20,"componentType":5126,"count":5688,"max":[1,1,1],"min":[-1,-1,-1],"type":"VEC3"},{"bufferView":21,"componentType":5126,"count":6048,"max":[140.11399841308594,39.55099868774414,58.099998474121094],"min":[134.69400024414062,34.13100051879883,-0.6000000238418579],"type":"VEC3"},{"bufferView":22,"componentType":5126,"count":6048,"max":[140.11399841308594,39.55099868774414],"min":[34.91999816894531,-57.099998474121094],"type":"VEC2"},{"bufferView":23,"componentType":5126,"count":6048,"max":[0.9999673366546631,0.9999432563781738,1],"min":[-0.9999535083770752,-0.9999553561210632,-1],"type":"VEC3"}],"materials":[{"pbrMetallicRoughness":{"baseColorFactor":[0.014443843592229466,0.008023192982520563,0.8148465722120952,1],"metallicFactor":0,"roughnessFactor":0.22},"doubleSided":true,"extensions":{"KHR_materials_clearcoat":{"clearcoatFactor":0.64,"clearcoatRoughnessFactor":0}}}],"meshes":[{"primitives":[{"mode":4,"attributes":{"POSITION":0,"TEXCOORD_0":1,"NORMAL":2},"material":0}]},{"primitives":[{"mode":4,"attributes":{"POSITION":3,"TEXCOORD_0":4,"NORMAL":5},"material":0}]},{"primitives":[{"mode":4,"attributes":{"POSITION":6,"TEXCOORD_0":7,"NORMAL":8},"material":0}]},{"primitives":[{"mode":4,"attributes":{"POSITION":9,"TEXCOORD_0":10,"NORMAL":11},"material":0}]},{"primitives":[{"mode":4,"attributes":{"POSITION":12,"TEXCOORD_0":13,"NORMAL":14},"material":0}]},{"primitives":[{"mode":4,"attributes":{"POSITION":15,"TEXCOORD_0":16,"NORMAL":17},"material":0}]},{"primitives":[{"mode":4,"attributes":{"POSITION":18,"TEXCOORD_0":19,"NORMAL":20},"material":0}]},{"primitives":[{"mode":4,"attributes":{"POSITION":21,"TEXCOORD_0":22,"NORMAL":23},"material":0}]}],"extensionsUsed":["KHR_materials_clearcoat"]}